# xmcd
#
# Track frame offsets: 
#        150
#        19129
#        36023
#        53119
#        72972
#        100774
#        122450
#        134224
#        159325
#        178649
#        209735
#        229443
#        248097
#        270380
#        287384
#
# Disc length: 4142 seconds
#
# Revision: 0
# Processed by: cddbd v1.5.2PL0 Copyright (c) Steve Scherf et al.
# Submitted via: ExactAudioCopy v0.99pb5
#
DISCID=d5102c0f
DTITLE=Eugene Hideaway Bridges - Live In San Antonio
DYEAR=2009
DGENRE=Blues
TTITLE0=I Got The Blues
TTITLE1=Woke Up This Morning
TTITLE2=Little Boy Blue
TTITLE3=Learn How To Let You Go
TTITLE4=Giving Up On Love
TTITLE5=Real Hero
TTITLE6=Rome Wasn't Built In A Day
TTITLE7=Wont Be Your Fool
TTITLE8=Movin' And A Groovin'
TTITLE9=I Know That You Love Me
TTITLE10=I Found It
TTITLE11=Bluesman
TTITLE12=How Can I Win
TTITLE13=You're The One
TTITLE14=Jump The Joint
EXTD=
EXTT0=
EXTT1=
EXTT2=
EXTT3=
EXTT4=
EXTT5=
EXTT6=
EXTT7=
EXTT8=
EXTT9=
EXTT10=
EXTT11=
EXTT12=
EXTT13=
EXTT14=
PLAYORDER=
